<svg id="Layer_1" data-name="Layer 1" xmlns="http://www.w3.org/2000/svg" viewBox="0 0 42.81 41.62">
  <title>icon-platform-biometrics</title>
  <polygon id="Shape" points="35.1 2.07 35.1 6.36 37.15 6.36 37.15 0 31.43 0 31.43 2.07 35.1 2.07" style="fill: #4a4a4a"/>
  <polygon id="Shape-2" data-name="Shape" points="7.7 2.07 11.37 2.07 11.37 0 5.65 0 5.65 6.36 7.7 6.36 7.7 2.07" style="fill: #4a4a4a"/>
  <polygon id="Shape-3" data-name="Shape" points="7.7 28.41 7.7 24.36 5.65 24.36 5.65 30.48 11.37 30.48 11.37 28.41 7.7 28.41" style="fill: #4a4a4a"/>
  <polygon id="Shape-4" data-name="Shape" points="35.1 28.41 31.43 28.41 31.43 30.48 37.15 30.48 37.15 24.36 35.1 24.36 35.1 28.41" style="fill: #4a4a4a"/>
  <path id="Shape-5" data-name="Shape" d="M37.14,35.08C31,33.65,25.3,32.4,28.06,27.15c8.42-16,2.23-24.56-6.66-24.56-9.06,0-15.1,8.89-6.66,24.56,2.85,5.29-3.08,6.54-9.08,7.93S0,35.7,0,41.62H42.8c0-5.92.47-5.11-5.66-6.54Z" style="fill: #4a4a4a"/>
</svg>
