<?xml version="1.0" encoding="UTF-8"?> <svg xmlns="http://www.w3.org/2000/svg" id="Layer_1" data-name="Layer 1" width="100.498" height="19" viewBox="0 0 100.498 19"><path id="Path_1" data-name="Path 1" d="M9.933,11.231H14.08V14.67a7.5,7.5,0,0,1-4.435,1.39c-3.756,0-6.25-2.781-6.25-6.587a6.257,6.257,0,0,1,6.23-6.509A6.3,6.3,0,0,1,14.2,4.687a.384.384,0,0,0,.528-.046l1.556-1.856a.378.378,0,0,0-.049-.538A9.475,9.475,0,0,0,9.617,0,9.3,9.3,0,0,0,0,9.526,9.123,9.123,0,0,0,9.53,19a11.693,11.693,0,0,0,7.436-2.669.635.635,0,0,0,.231-.5V8.8a.38.38,0,0,0-.38-.38H9.933a.38.38,0,0,0-.38.38v2.055a.38.38,0,0,0,.38.38Z" fill="#3b1c52"></path><path id="Path_2" data-name="Path 2" d="M161.418,8.2c0-3.55-2.566-5.753-6.741-5.753h-7.705a.382.382,0,0,0-.382.382V20.206a.384.384,0,0,0,.382.384H149.4a.384.384,0,0,0,.382-.384V14.267h3.993l4.268,6.048a.639.639,0,0,0,.528.271h2.816a.32.32,0,0,0,.26-.5L157.1,13.718A5.426,5.426,0,0,0,161.418,8.2Zm-11.641,3.239V5.362h4.641c2.358,0,3.759,1.036,3.759,3.031,0,1.867-1.452,3.058-3.733,3.058Z" transform="translate(-120.803 -2.019)" fill="#3b1c52"></path><path id="Path_3" data-name="Path 3" d="M277.562,2.783l-7.586,17.348a.317.317,0,0,0,.29.443h2.341a.634.634,0,0,0,.583-.387l1.677-3.944h8.52l1.677,3.944a.632.632,0,0,0,.583.387h2.439a.317.317,0,0,0,.29-.443L280.795,2.783a.57.57,0,0,0-.528-.343h-2.182a.572.572,0,0,0-.523.343Zm-1.5,10.663,3.069-7.225,3.069,7.225Z" transform="translate(-222.463 -2.01)" fill="#3b1c52"></path><path id="Path_4" data-name="Path 4" d="M498.247,17.685V2.832a.382.382,0,0,0-.382-.382h-2.424a.382.382,0,0,0-.382.382V20.206a.382.382,0,0,0,.382.382h12.646a.382.382,0,0,0,.382-.382V18.068a.384.384,0,0,0-.382-.384Z" transform="translate(-407.972 -2.019)" fill="#3b1c52"></path><path id="Path_7" data-name="Path 7" d="M.356,0h3.5a.356.356,0,0,1,.356.356v2.35a.356.356,0,0,1-.356.356H.356A.356.356,0,0,1,0,2.705V.356A.356.356,0,0,1,.356,0Z" transform="translate(73.634 7.971)" fill="#3b1c52"></path><path id="Path_5" data-name="Path 5" d="M.356,0h3.5a.356.356,0,0,1,.356.356v2.35a.356.356,0,0,1-.356.356H.356A.356.356,0,0,1,0,2.705V.356A.356.356,0,0,1,.356,0Z" transform="translate(73.634 0.431)" fill="#3b1c52"></path><path id="Path_6" data-name="Path 6" d="M.253,0h3.7a.253.253,0,0,1,.253.253v.6a.253.253,0,0,1-.253.253H.253A.253.253,0,0,1,0,.855v-.6A.253.253,0,0,1,.253,0Z" transform="translate(73.634 5.176)" fill="#3b1c52"></path><path id="Path_9" data-name="Path 9" d="M.356,0h3.5a.356.356,0,0,1,.356.356v2.35a.356.356,0,0,1-.356.356H.356A.356.356,0,0,1,0,2.705V.356A.356.356,0,0,1,.356,0Z" transform="translate(73.634 15.508)" fill="#3b1c52"></path><path id="Path_8" data-name="Path 8" d="M.253,0h3.7a.253.253,0,0,1,.253.253v.6a.253.253,0,0,1-.253.253H.253A.253.253,0,0,1,0,.855v-.6A.253.253,0,0,1,.253,0Z" transform="translate(73.634 12.716)" fill="#3b1c52"></path></svg> 